HIERARCHY
ROOT Hips
{
	OFFSET 0.00000 0.00000 0.00000
	CHANNELS 6 Xposition Yposition Zposition Yrotation Zrotation Xrotation 
	JOINT Lumbar
	{
		OFFSET 0 0 0
		CHANNELS 3 Zrotation Xrotation Yrotation
		JOINT Neck
		{
			OFFSET 0.00 0.2701 0.00
			CHANNELS 3 Zrotation Xrotation Yrotation
			End Site
			{
				OFFSET 0.00 0.1379 0.00
			}
		}
		JOINT RightShoulder
		{
			OFFSET 0.0119 0.2289 0.1181
			CHANNELS 3 Zrotation Xrotation Yrotation
			JOINT RightElbow
			{
				OFFSET 0.00 -0.1475 0.00
				CHANNELS 2 Zrotation Yrotation
				JOINT RightWrist
				{
					OFFSET 0.00 -0.1605 0.00
					CHANNELS 2 Zrotation Xrotation
					End Site
					{
						OFFSET 0.0040 -0.1068 0.0006
					}
				}
			}
		}
		JOINT LeftShoulder
		{
			OFFSET 0.0119 0.2289 -0.1181
			CHANNELS 3 Zrotation Xrotation Yrotation
			JOINT LeftElbow
			{
				OFFSET 0.00 -0.1475 0.00
				CHANNELS 2 Zrotation Yrotation
				JOINT LeftWrist
				{
					OFFSET 0.00 -0.1605 0.00
					CHANNELS 2 Zrotation Xrotation
					End Site
					{
						OFFSET 0.0040 -0.1068 -0.0006
					}
				}
			}
		}
	}
	JOINT RightHip
	{
		OFFSET 0.0316 -0.0424 0.0458
		CHANNELS 3 Zrotation Xrotation Yrotation
		JOINT RightKnee
		{
			OFFSET 0.00 -0.2438 0.00
			CHANNELS 1 Zrotation
			JOINT RightAnkle
			{
				OFFSET 0.00 -0.2449 0.00
				CHANNELS 3 Zrotation Xrotation Yrotation
				End Site
				{
					OFFSET 0.1237 -0.0542 0.0051
				}
			}
		}
	}
	JOINT LeftHip
	{
		OFFSET 0.0316 -0.0424 -0.0458
		CHANNELS 3 Zrotation Xrotation Yrotation
		JOINT LeftKnee
		{
			OFFSET 0.00 -0.2438 0.00
			CHANNELS 1 Zrotation
			JOINT LeftAnkle
			{
				OFFSET 0.00 -0.2449 0.00
				CHANNELS 3 Zrotation Xrotation Yrotation
				End Site
				{
					OFFSET 0.1237 -0.0542 -0.0051
				}
			}
		}
	}
}
MOTION
Frames: 14
Frame Time: 0.02
0.04074 0.57359 0.00638 179.43718 0 -4.14985 -3.37211 3.82823 0.78373 -27.16371 -0.44388 2.79644 46.65772 -51.80502 8.09962 51.60899 73.7105 -5.19989 3.00185 33.93315 44.70571 -0.29585 50.31218 -69.46234 -15.68627 0.14452 -3.68179 9.29638 1.19054 -6.66246 0.13275 -8.22933 -6.20624 15.84185 6.05273 -1.34284 -33.92876 9.40072 0.03829 -2.26023
0.03988 0.57369 0.00637 179.32035 0 -4.08455 -3.52955 3.61394 0.97424 -27.37312 -0.72599 2.69253 48.99011 -52.56827 8.80896 51.75771 72.83174 -5.36533 3.30082 35.41616 45.58373 -1.1149 50.09969 -68.75594 -15.50601 -0.09957 -3.74862 9.22127 1.31667 -6.6748 0.23259 -7.49806 -6.18759 16.4462 6.25743 -1.74932 -33.97475 9.12988 0.14899 -2.05327
0.03873 0.57393 0.00664 179.16061 0 -3.96695 -3.66765 3.32838 1.17031 -27.63468 -1.00981 2.60809 51.67644 -53.27825 9.76036 52.12787 71.81973 -5.58739 3.57737 37.14474 46.43326 -2.08246 50.12328 -68.06114 -15.45555 -0.34983 -3.77568 9.07413 1.45851 -6.80267 0.41665 -6.27758 -6.1809 16.80108 6.43467 -2.10014 -33.2733 8.70022 0.36977 -1.69085
0.03769 0.5741 0.00681 179.02567 0 -3.87773 -3.8155 3.07823 1.35894 -27.86566 -1.29179 2.51192 54.20581 -54.0029 10.61764 52.41445 70.87517 -5.78274 3.86045 38.76026 47.2949 -2.99249 50.06629 -67.35986 -15.34591 -0.5953 -3.82676 8.96239 1.58919 -6.87317 0.5598 -5.31972 -6.16966 17.25548 6.6278 -2.49264 -32.87296 8.34239 0.53303 -1.4131
0.03677 0.57431 0.00688 178.86911 0 -3.76935 -3.95881 2.81515 1.56759 -28.12835 -1.57754 2.42973 56.73391 -54.77447 11.41473 52.64341 69.89973 -5.98021 4.16146 40.39007 48.1627 -3.86492 49.91047 -66.65794 -15.23521 -0.85051 -3.85354 8.83992 1.7385 -6.96292 0.71212 -4.2009 -6.15724 17.77128 6.80817 -2.82175 -32.63187 7.98294 0.72529 -1.07903
0.03552 0.57446 0.00722 178.74658 0 -3.68853 -4.1071 2.56199 1.73644 -28.33608 -1.85578 2.3226 59.3423 -55.43205 12.3937 53.04038 68.95834 -6.18704 4.41903 42.04558 49.00802 -4.85038 50.0132 -65.96363 -15.158 -1.08621 -3.92121 8.72222 1.85236 -7.0412 0.86642 -3.29713 -6.14908 18.0979 7.00711 -3.26505 -31.88723 7.58994 0.88414 -0.82477
0.03346 0.57438 0.00818 178.73518 0 -3.69394 -4.27513 2.35515 1.79003 -28.38242 -2.11696 2.13867 62.09183 -55.80044 13.79495 53.8362 68.13623 -6.41101 4.55983 43.70856 49.82059 -6.09819 50.74802 -65.27131 -15.14509 -1.26863 -4.11086 8.63829 1.86106 -7.05193 1.00159 -3.11329 -6.15048 17.97447 7.27391 -4.06669 -29.88257 7.14802 0.92619 -0.82192
0.03106 0.57424 0.00942 178.7583 0 -3.72914 -4.44884 2.16027 1.80411 -28.3705 -2.36988 1.92931 64.90585 -56.05263 15.37309 54.7935 67.35533 -6.6416 4.6576 45.3883 50.60675 -7.4567 51.73705 -64.58993 -15.16116 -1.43062 -4.34282 8.56082 1.8337 -7.04912 1.13683 -3.16033 -6.15533 17.66708 7.55799 -4.97898 -27.40733 6.67754 0.93095 -0.90511
0.02879 0.57412 0.01056 178.76121 0 -3.75261 -4.61901 1.95931 1.83898 -28.3832 -2.62412 1.73331 67.68541 -56.34924 16.88311 55.68155 66.55944 -6.86647 4.77638 47.06151 51.39094 -8.77203 52.62327 -63.9147 -15.16178 -1.60048 -4.55603 8.47873 1.82507 -7.05697 1.2749 -3.09624 -6.15768 17.43603 7.82814 -5.82125 -25.18067 6.21725 0.95146 -0.95359
0.02665 0.57402 0.01158 178.78156 0 -3.76738 -4.79194 1.75959 1.86223 -28.40665 -2.88889 1.5302 70.50296 -56.68028 18.35167 56.55933 65.73966 -7.10576 4.88885 48.73918 52.23529 -10.06098 53.46456 -63.19263 -15.17608 -1.77672 -4.7668 8.40223 1.80796 -7.04785 1.40378 -3.04145 -6.16414 17.22622 8.12472 -6.74609 -22.77805 5.76251 0.9802 -0.98004
0.02415 0.57388 0.01293 178.77455 0 -3.80708 -4.96151 1.55978 1.90005 -28.39186 -3.1295 1.33583 73.2475 -56.91171 19.94323 57.49493 64.98547 -7.31455 5.00382 50.4079 52.94575 -11.43117 54.45635 -62.57086 -15.16763 -1.93452 -4.992 8.31529 1.7987 -7.07184 1.55076 -3.02845 -6.16307 16.93263 8.36852 -7.52453 -20.64406 5.29231 0.98227 -1.07248
0.02075 0.5736 0.01511 178.68151 0 -3.91697 -5.11375 1.36834 1.98968 -28.2964 -3.30754 1.16965 75.80985 -56.90464 21.84788 58.54089 64.36542 -7.44873 5.14227 52.04984 53.31535 -12.98191 55.80238 -62.22111 -15.08407 -2.04825 -5.25717 8.20929 1.8285 -7.16908 1.74676 -3.07625 -6.13596 16.44564 8.48146 -7.88309 -19.33459 4.78113 0.91277 -1.34729
0.017 0.57328 0.01764 178.56015 0 -4.0497 -5.26386 1.17472 2.09517 -28.16208 -3.46128 1.01345 78.2873 -56.80006 23.86541 59.6405 63.81696 -7.54981 5.2837 53.68064 53.54672 -14.61338 57.28943 -61.97209 -14.97691 -2.14379 -5.53345 8.09081 1.86565 -7.30372 1.96048 -3.16003 -6.10129 15.88297 8.53744 -8.0883 -18.32108 4.25762 0.81841 -1.68257
0.01339 0.57299 0.02003 178.45347 0 -4.16637 -5.41923 0.97472 2.19183 -28.03839 -3.6246 0.85398 80.7797 -56.73506 25.81956 60.72038 63.26131 -7.65814 5.41987 55.31381 53.82729 -16.21755 58.71049 -61.67867 -14.88337 -2.24633 -5.79821 7.97099 1.89389 -7.43452 2.16661 -3.22873 -6.07366 15.36118 8.60684 -8.3569 -17.19767 3.74344 0.73959 -1.97675
